<svg width="26" height="20" viewBox="0 0 26 20" fill="none" xmlns="http://www.w3.org/2000/svg">
<path d="M20.5033 7.46094L20.183 8.01954C20.0658 8.22657 19.8158 8.3125 19.5931 8.23047C19.1322 8.0586 18.7103 7.8125 18.3392 7.50391C18.1595 7.35547 18.1127 7.09375 18.2299 6.89063L18.5502 6.33204C18.2806 6.01954 18.0697 5.65625 17.9291 5.26172H17.2845C17.0502 5.26172 16.847 5.09375 16.808 4.85938C16.7299 4.39063 16.726 3.89844 16.808 3.41016C16.847 3.17579 17.0502 3.00391 17.2845 3.00391H17.9291C18.0697 2.60938 18.2806 2.2461 18.5502 1.9336L18.2299 1.375C18.1127 1.17188 18.1556 0.910161 18.3392 0.761723C18.7103 0.45313 19.1361 0.207036 19.5931 0.0351608C19.8158 -0.0468704 20.0658 0.0390671 20.183 0.246098L20.5033 0.804692C20.9135 0.730473 21.3314 0.730473 21.7416 0.804692L22.0619 0.246098C22.1791 0.0390671 22.4291 -0.0468704 22.6517 0.0351608C23.1127 0.207036 23.5345 0.45313 23.9056 0.761723C24.0853 0.910161 24.1322 1.17188 24.015 1.375L23.6947 1.9336C23.9642 2.2461 24.1752 2.60938 24.3158 3.00391H24.9603C25.1947 3.00391 25.3978 3.17188 25.4369 3.40625C25.515 3.875 25.5189 4.36719 25.4369 4.85547C25.3978 5.08985 25.1947 5.26172 24.9603 5.26172H24.3158C24.1752 5.65625 23.9642 6.01954 23.6947 6.33204L24.015 6.89063C24.1322 7.09375 24.0892 7.35547 23.9056 7.50391C23.5345 7.8125 23.1088 8.0586 22.6517 8.23047C22.4291 8.3125 22.1791 8.22657 22.0619 8.01954L21.7416 7.46094C21.3353 7.53516 20.9135 7.53516 20.5033 7.46094ZM20.0931 5.16407C21.597 6.32032 23.3119 4.60547 22.1556 3.10157C20.6517 1.94141 18.9369 3.66016 20.0931 5.16407ZM15.5892 11.1758L16.9056 11.832C17.3002 12.0586 17.472 12.5391 17.3158 12.9688C16.9681 13.9141 16.2845 14.7813 15.6517 15.5391C15.3627 15.8867 14.8627 15.9727 14.4681 15.7461L13.3314 15.0898C12.7064 15.625 11.9799 16.0508 11.1869 16.3281V17.6406C11.1869 18.0938 10.8627 18.4844 10.4174 18.5625C9.45642 18.7266 8.44861 18.7344 7.45252 18.5625C7.0033 18.4844 6.67127 18.0977 6.67127 17.6406V16.3281C5.8783 16.0469 5.15173 15.625 4.52673 15.0898L3.39002 15.7422C2.99939 15.9688 2.49548 15.8828 2.20642 15.5352C1.57361 14.7773 0.90564 13.9102 0.557984 12.9688C0.401734 12.543 0.573609 12.0625 0.96814 11.832L2.26892 11.1758C2.11658 10.3594 2.11658 9.51954 2.26892 8.69922L0.96814 8.03907C0.573609 7.8125 0.397828 7.33204 0.557984 6.90625C0.90564 5.96094 1.57361 5.09375 2.20642 4.33594C2.49548 3.98829 2.99548 3.90235 3.39002 4.12891L4.52673 4.78516C5.15173 4.25 5.8783 3.82422 6.67127 3.54688V2.23047C6.67127 1.78125 6.99158 1.39063 7.43689 1.3125C8.39783 1.14844 9.40955 1.14063 10.4056 1.3086C10.8549 1.38672 11.1869 1.77344 11.1869 2.23047V3.54297C11.9799 3.82422 12.7064 4.2461 13.3314 4.78125L14.4681 4.125C14.8588 3.89844 15.3627 3.98438 15.6517 4.33204C16.2845 5.08985 16.9486 5.95704 17.2963 6.90235C17.4525 7.32813 17.3002 7.8086 16.9056 8.03907L15.5892 8.69532C15.7416 9.51563 15.7416 10.3555 15.5892 11.1758ZM10.9955 12C13.308 8.99219 9.87439 5.5586 6.86658 7.8711C4.55408 10.8789 7.98767 14.3125 10.9955 12ZM20.5033 19.1367L20.183 19.6953C20.0658 19.9023 19.8158 19.9883 19.5931 19.9063C19.1322 19.7344 18.7103 19.4883 18.3392 19.1797C18.1595 19.0313 18.1127 18.7695 18.2299 18.5664L18.5502 18.0078C18.2806 17.6953 18.0697 17.332 17.9291 16.9375H17.2845C17.0502 16.9375 16.847 16.7695 16.808 16.5352C16.7299 16.0664 16.726 15.5742 16.808 15.0859C16.847 14.8516 17.0502 14.6797 17.2845 14.6797H17.9291C18.0697 14.2852 18.2806 13.9219 18.5502 13.6094L18.2299 13.0508C18.1127 12.8477 18.1556 12.5859 18.3392 12.4375C18.7103 12.1289 19.1361 11.8828 19.5931 11.7109C19.8158 11.6289 20.0658 11.7148 20.183 11.9219L20.5033 12.4805C20.9135 12.4063 21.3314 12.4063 21.7416 12.4805L22.0619 11.9219C22.1791 11.7148 22.4291 11.6289 22.6517 11.7109C23.1127 11.8828 23.5345 12.1289 23.9056 12.4375C24.0853 12.5859 24.1322 12.8477 24.015 13.0508L23.6947 13.6094C23.9642 13.9219 24.1752 14.2852 24.3158 14.6797H24.9603C25.1947 14.6797 25.3978 14.8477 25.4369 15.082C25.515 15.5508 25.5189 16.043 25.4369 16.5313C25.3978 16.7656 25.1947 16.9375 24.9603 16.9375H24.3158C24.1752 17.332 23.9642 17.6953 23.6947 18.0078L24.015 18.5664C24.1322 18.7695 24.0892 19.0313 23.9056 19.1797C23.5345 19.4883 23.1088 19.7344 22.6517 19.9063C22.4291 19.9883 22.1791 19.9023 22.0619 19.6953L21.7416 19.1367C21.3353 19.2109 20.9135 19.2109 20.5033 19.1367ZM20.0931 16.8359C21.597 17.9922 23.3119 16.2773 22.1556 14.7734C20.6517 13.6172 18.9369 15.332 20.0931 16.8359Z" fill="#E66410"/>
</svg>
