<svg width="26" height="20" viewBox="0 0 26 20" fill="none" xmlns="http://www.w3.org/2000/svg">
<path d="M9.24976 10C12.0115 10 14.2498 7.76172 14.2498 5C14.2498 2.23828 12.0115 0 9.24976 0C6.48804 0 4.24976 2.23828 4.24976 5C4.24976 7.76172 6.48804 10 9.24976 10ZM12.7498 11.25H12.0974C11.2302 11.6484 10.2654 11.875 9.24976 11.875C8.23413 11.875 7.27319 11.6484 6.4021 11.25H5.74976C2.85132 11.25 0.499756 13.6016 0.499756 16.5V18.125C0.499756 19.1602 1.3396 20 2.37476 20H16.1248C17.1599 20 17.9998 19.1602 17.9998 18.125V16.5C17.9998 13.6016 15.6482 11.25 12.7498 11.25ZM25.3669 6.23438L24.281 5.13672C24.1013 4.95312 23.8083 4.95312 23.6248 5.13281L19.531 9.19531L17.7537 7.40625C17.574 7.22266 17.281 7.22266 17.0974 7.40234L15.9998 8.49219C15.8162 8.67188 15.8162 8.96484 15.9958 9.14844L19.1873 12.3633C19.3669 12.5469 19.6599 12.5469 19.8435 12.3672L25.363 6.89062C25.5427 6.70703 25.5466 6.41406 25.3669 6.23438Z" fill="#E66410"/>
</svg>
