<svg width="152" height="56" viewBox="0 0 152 56" fill="none" xmlns="http://www.w3.org/2000/svg">
<g clip-path="url(#clip0_948_23380)">
<path fill-rule="evenodd" clip-rule="evenodd" d="M0 34.3574V41.6595L12.3611 48.7453L12.3597 41.3931L48.3028 20.6428L35.9832 13.5828L0 34.3574Z" fill="#F4AF30"/>
<path fill-rule="evenodd" clip-rule="evenodd" d="M0.00317383 28.0982L36.4576 7.06L24.1381 0L0.00317383 13.9338V28.0982Z" fill="#F7D655"/>
<path fill-rule="evenodd" clip-rule="evenodd" d="M18.0088 51.9838L24.3111 55.5947L48.2999 41.7512L35.9804 34.6912L18.0088 45.067V51.9838Z" fill="#EF7D00"/>
<path d="M58.1569 24.3345V15.0812H54.605V13.3585H63.5458V15.0812H59.9939V24.3345H58.1569Z" fill="white"/>
<path d="M69.071 24.5631C68.2529 24.5631 67.5212 24.4361 66.8758 24.182C66.2305 23.9229 65.6842 23.5367 65.2371 23.0235C64.7899 22.5052 64.4545 21.8624 64.2309 21.0951L66.0298 20.6453C66.233 21.2958 66.5913 21.8242 67.1045 22.2308C67.6177 22.6373 68.2351 22.838 68.9567 22.8329C69.4598 22.8227 69.9349 22.7237 70.382 22.5356C70.8343 22.3476 71.2027 22.058 71.4873 21.6667C71.7159 21.3771 71.8836 21.0671 71.9903 20.7368C72.097 20.4014 72.1707 20.0559 72.2114 19.7002H68.3241V17.9776H72.2266C72.1453 17.3576 71.9675 16.8139 71.6931 16.3464C71.4187 15.8739 71.0503 15.508 70.5878 15.2488C70.1305 14.9846 69.5868 14.8576 68.9567 14.8677C68.2046 14.8728 67.5695 15.0812 67.0512 15.4928C66.5328 15.9044 66.1797 16.4608 65.9917 17.162L64.1547 16.9029C64.4291 15.7036 64.9932 14.7763 65.8468 14.1208C66.7005 13.4602 67.7753 13.1299 69.071 13.1299C70.1331 13.1299 71.0452 13.3713 71.8074 13.854C72.5747 14.3316 73.1641 14.9999 73.5757 15.8586C73.9924 16.7174 74.2033 17.7133 74.2084 18.8465C74.2135 19.9136 74.0127 20.8791 73.6062 21.7429C73.1997 22.6068 72.6103 23.2928 71.8379 23.8009C71.0706 24.3091 70.1483 24.5631 69.071 24.5631Z" fill="white"/>
<path d="M75.7363 24.3345V13.3585H77.5732V18.4502L81.956 13.3585H84.2121L79.494 18.7398L84.5322 24.3345H82.1999L77.5732 19.2124V24.3345H75.7363Z" fill="white"/>
<path d="M64.5726 38.7166H62.6673V30.7907L57.451 38.7166H55.5457V27.4719H57.451V35.3978L62.6673 27.4719H64.5726V38.7166Z" fill="white"/>
<path d="M66.7399 38.7166V30.2831H68.6218V33.6096H72.4091V30.2831H74.291V38.7166H72.4091V35.3744H68.6218V38.7166H66.7399Z" fill="white"/>
<path d="M75.5337 38.7166L78.6259 34.4998L75.7211 30.2831H77.7826L80.5235 34.3671V30.2831H82.1945V34.3671L84.9354 30.2831H86.9891L84.0843 34.4998L87.1765 38.7166H85.0057L82.1945 34.6326V38.7166H80.5235V34.6326L77.7045 38.7166H75.5337Z" fill="white"/>
<path d="M95.7369 30.2831V38.7166H93.9331V33.2114L89.9194 38.7166H88.4123V30.2831H90.2161V35.6477L94.2454 30.2831H95.7369Z" fill="white"/>
<path d="M97.914 38.7166V30.2831H99.7959V33.6096H103.583V30.2831H105.465V38.7166H103.583V35.3744H99.7959V38.7166H97.914Z" fill="white"/>
<path d="M114.954 30.2831V38.7166H113.15V33.2114L109.136 38.7166H107.629V30.2831H109.433V35.6477L113.462 30.2831H114.954Z" fill="white"/>
<path d="M121.199 38.9508C120.377 38.9508 119.687 38.7556 119.13 38.3652C118.573 37.9747 118.154 37.4437 117.873 36.7722C117.592 36.0954 117.451 35.338 117.451 34.4998C117.451 33.6513 117.592 32.8912 117.873 32.2197C118.154 31.5481 118.565 31.0197 119.106 30.6345C119.653 30.244 120.327 30.0488 121.129 30.0488C121.925 30.0488 122.615 30.244 123.198 30.6345C123.787 31.0197 124.242 31.5481 124.565 32.2197C124.888 32.886 125.049 33.6461 125.049 34.4998C125.049 35.3432 124.89 36.1006 124.573 36.7722C124.255 37.4437 123.807 37.9747 123.23 38.3652C122.652 38.7556 121.975 38.9508 121.199 38.9508ZM117.131 42.4648V30.2831H118.794V36.2021H119.028V42.4648H117.131ZM120.91 37.2641C121.4 37.2641 121.803 37.1418 122.121 36.8971C122.438 36.6524 122.672 36.3219 122.823 35.9054C122.98 35.4837 123.058 35.0152 123.058 34.4998C123.058 33.9896 122.98 33.5263 122.823 33.1099C122.667 32.6882 122.425 32.355 122.097 32.1103C121.769 31.8605 121.353 31.7355 120.848 31.7355C120.369 31.7355 119.978 31.8526 119.677 32.0869C119.375 32.316 119.151 32.6387 119.005 33.0552C118.864 33.4665 118.794 33.948 118.794 34.4998C118.794 35.0464 118.864 35.528 119.005 35.9444C119.151 36.3609 119.377 36.6863 119.684 36.9205C119.997 37.1496 120.405 37.2641 120.91 37.2641Z" fill="white"/>
<path d="M134.079 30.2831V38.7166H132.275V33.2114L128.262 38.7166H126.755V30.2831H128.558V35.6477L132.588 30.2831H134.079Z" fill="white"/>
<path d="M136.256 38.7166V30.2831H138.138V33.6096H141.925V30.2831H143.807V38.7166H141.925V35.3744H138.138V38.7166H136.256Z" fill="white"/>
<path d="M145.987 38.7166V30.2831H152V32.0479H147.869V38.7166H145.987Z" fill="white"/>
</g>
<defs>
<clipPath id="clip0_948_23380">
<rect width="152" height="55.5948" fill="white"/>
</clipPath>
</defs>
</svg>
