<svg width="26" height="18" viewBox="0 0 26 18" fill="none" xmlns="http://www.w3.org/2000/svg">
<path d="M24.7643 1.12734C23.2491 0.491797 21.7327 0.25 20.217 0.25C15.4057 0.249609 10.5948 2.68516 5.78345 2.68516C4.57681 2.68516 3.37095 2.53203 2.16431 2.14922C2.02876 2.10625 1.89282 2.08594 1.76001 2.08594C1.08774 2.08594 0.500244 2.60625 0.500244 3.32852V15.7215C0.500244 16.2148 0.782666 16.6824 1.23618 16.8723C2.75142 17.5082 4.26782 17.75 5.78345 17.75C10.5948 17.75 15.4061 15.3145 20.2174 15.3145C21.4241 15.3145 22.6299 15.4676 23.8366 15.8504C23.9721 15.8934 24.1081 15.9137 24.2409 15.9137C24.9131 15.9137 25.5006 15.3934 25.5006 14.6711V2.27852C25.5002 1.78477 25.2178 1.31758 24.7643 1.12734ZM2.37524 4.16484C3.16118 4.36172 3.98149 4.46055 4.82524 4.51367C4.59556 5.66172 3.58618 6.52695 2.37524 6.52695V4.16484ZM2.37524 15.2977V13.4312C3.71782 13.4312 4.80415 14.4965 4.86392 15.8297C3.98384 15.759 3.16118 15.5832 2.37524 15.2977ZM13.0002 12.75C11.2741 12.75 9.87525 11.0707 9.87525 9C9.87525 6.92891 11.2745 5.25 13.0002 5.25C14.726 5.25 16.1252 6.92891 16.1252 9C16.1252 11.0715 14.7256 12.75 13.0002 12.75ZM23.6252 13.8352C22.9409 13.6637 22.2303 13.5676 21.5034 13.5055C21.7327 12.4867 22.5776 11.7133 23.6252 11.5805V13.8352ZM23.6252 4.61211C22.4186 4.45937 21.4823 3.45195 21.4452 2.20781C22.2085 2.29258 22.9331 2.45117 23.6252 2.70234V4.61211Z" fill="#E66410"/>
</svg>
