<svg width="20" height="21" viewBox="0 0 20 21" fill="none" xmlns="http://www.w3.org/2000/svg">
<path d="M18 12.3379V15.1379C18 16.258 18 16.818 17.782 17.2459C17.5903 17.6222 17.2843 17.9282 16.908 18.1199C16.4802 18.3379 15.9201 18.3379 14.8 18.3379H12M8 2.33789H5.2C4.0799 2.33789 3.51984 2.33789 3.09202 2.55588C2.71569 2.74762 2.40973 3.05359 2.21799 3.42991C2 3.85773 2 4.41779 2 5.53789V8.33789M13 7.33789L19 1.33789M19 1.33789H13M19 1.33789V7.33789M7 13.3379L1 19.3379M1 19.3379H7M1 19.3379L1 13.3379" stroke="#262626" stroke-width="2" stroke-linecap="round" stroke-linejoin="round"/>
</svg>
