<svg width="20" height="20" viewBox="0 0 20 20" fill="none" xmlns="http://www.w3.org/2000/svg">
<path d="M18.2227 3.26953L10.7227 0.144534C10.4942 0.0497599 10.2493 0.000976563 10.002 0.000976562C9.75462 0.000976563 9.50971 0.0497599 9.28125 0.144534L1.78125 3.26953C1.08203 3.5586 0.625 4.24219 0.625 5C0.625 12.7539 5.09766 18.1133 9.27734 19.8555C9.73828 20.0469 10.2578 20.0469 10.7188 19.8555C14.0664 18.4609 19.375 13.6445 19.375 5C19.375 4.24219 18.918 3.5586 18.2227 3.26953ZM10.0039 17.4336L10 2.55078L16.8711 5.41407C16.7422 11.3281 13.6641 15.6133 10.0039 17.4336Z" fill="#E66410"/>
</svg>
