<svg width="18" height="18" viewBox="0 0 18 18" fill="none" xmlns="http://www.w3.org/2000/svg">
<path fill-rule="evenodd" clip-rule="evenodd" d="M17.3334 8.79745C17.3334 13.3998 13.6025 17.1308 9.00008 17.1308C4.39771 17.1308 0.666748 13.3998 0.666748 8.79745C0.666748 4.19507 4.39771 0.464111 9.00008 0.464111C13.6025 0.464111 17.3334 4.19507 17.3334 8.79745ZM9.29871 6.61615C8.48817 6.95328 6.86823 7.65105 4.4389 8.70947C4.04441 8.86635 3.83776 9.01982 3.81895 9.16988C3.78716 9.42348 4.10474 9.52335 4.53722 9.65934C4.59604 9.67783 4.65699 9.697 4.71948 9.71731C5.14497 9.85562 5.71732 10.0174 6.01487 10.0239C6.28477 10.0297 6.586 9.91842 6.91858 9.69004C9.18839 8.15786 10.3601 7.38342 10.4336 7.36673C10.4855 7.35495 10.5574 7.34014 10.6062 7.38345C10.6549 7.42676 10.6501 7.50878 10.6449 7.53078C10.6135 7.6649 9.36683 8.82391 8.72169 9.42369C8.52057 9.61066 8.37791 9.74329 8.34875 9.77358C8.28342 9.84143 8.21684 9.90562 8.15285 9.96731C7.75756 10.3484 7.46113 10.6341 8.16926 11.1008C8.50955 11.325 8.78185 11.5105 9.05351 11.6955C9.3502 11.8975 9.64611 12.099 10.029 12.35C10.1265 12.4139 10.2197 12.4803 10.3104 12.545C10.6557 12.7912 10.9659 13.0123 11.3491 12.9771C11.5718 12.9566 11.8018 12.7472 11.9186 12.1227C12.1947 10.6468 12.7373 7.44915 12.8627 6.13145C12.8737 6.01601 12.8599 5.86826 12.8488 5.8034C12.8377 5.73854 12.8145 5.64613 12.7302 5.57772C12.6304 5.49671 12.4762 5.47962 12.4073 5.48084C12.0938 5.48636 11.613 5.65357 9.29871 6.61615Z" fill="#D0D0D1"/>
</svg>
