<svg width="18" height="17" viewBox="0 0 18 17" fill="none" xmlns="http://www.w3.org/2000/svg">
<path fill-rule="evenodd" clip-rule="evenodd" d="M17.3337 8.56869C17.3337 13.1711 13.6027 16.902 9.00033 16.902C4.39795 16.902 0.666992 13.1711 0.666992 8.56869C0.666992 3.96631 4.39795 0.235352 9.00033 0.235352C13.6027 0.235352 17.3337 3.96631 17.3337 8.56869ZM9.29895 6.38739C8.48841 6.72452 6.86848 7.42229 4.43914 8.48071C4.04465 8.63759 3.838 8.79106 3.81919 8.94112C3.7874 9.19472 4.10499 9.29459 4.53746 9.43058C4.59629 9.44907 4.65724 9.46824 4.71973 9.48855C5.14521 9.62686 5.71757 9.78867 6.01511 9.7951C6.28501 9.80093 6.58625 9.68966 6.91883 9.46128C9.18863 7.9291 10.3603 7.15466 10.4339 7.13797C10.4858 7.12619 10.5577 7.11138 10.6064 7.15469C10.6551 7.198 10.6503 7.28002 10.6452 7.30202C10.6137 7.43614 9.36707 8.59515 8.72193 9.19493C8.52081 9.3819 8.37815 9.51453 8.34899 9.54482C8.28366 9.61267 8.21708 9.67686 8.15309 9.73855C7.7578 10.1196 7.46138 10.4054 8.1695 10.872C8.50979 11.0963 8.7821 11.2817 9.05375 11.4667C9.35044 11.6687 9.64636 11.8703 10.0292 12.1212C10.1268 12.1852 10.2199 12.2516 10.3107 12.3163C10.6559 12.5624 10.9661 12.7836 11.3493 12.7483C11.572 12.7278 11.802 12.5184 11.9189 11.8939C12.1949 10.4181 12.7376 7.22039 12.863 5.90269C12.874 5.78725 12.8601 5.6395 12.849 5.57464C12.8379 5.50978 12.8147 5.41737 12.7304 5.34896C12.6306 5.26795 12.4765 5.25086 12.4075 5.25208C12.0941 5.2576 11.6132 5.42481 9.29895 6.38739Z" fill="#454446"/>
</svg>
