<svg width="20" height="22" viewBox="0 0 20 22" fill="none" xmlns="http://www.w3.org/2000/svg">
<path d="M19.5742 16.7299L15 11.927C14.0977 10.9795 12.75 10.7949 11.6641 11.3568L7.5 6.98457V4.4375L2.5 0.5L-2.95695e-08 3.125L3.75 8.375H6.17578L10.3398 12.7473C9.80859 13.8875 9.98047 15.3025 10.8828 16.25L15.457 21.0529C16.0273 21.6518 16.9492 21.6518 17.5156 21.0529L19.5742 18.8914C20.1406 18.2926 20.1406 17.3246 19.5742 16.7299ZM12.957 9.72852C14.0625 9.72852 15.1016 10.1797 15.8828 11L16.6406 11.7957C17.2578 11.5127 17.8438 11.1189 18.3516 10.5857C19.8008 9.06406 20.293 6.92305 19.832 4.97891C19.7461 4.60977 19.3047 4.48262 19.0469 4.75332L16.1406 7.80488L13.4883 7.34141L13.0469 4.55645L15.9531 1.50488C16.2109 1.23418 16.0859 0.770703 15.7305 0.676367C13.8789 0.196484 11.8398 0.713281 10.3945 2.23086C9.28125 3.39981 8.75781 4.94199 8.78516 6.48008L11.9922 9.84746C12.3086 9.76953 12.6367 9.72852 12.957 9.72852ZM8.89844 13.0918L6.68359 10.7662L0.730469 17.0211C-0.246094 18.0465 -0.246094 19.7076 0.730469 20.733C1.70703 21.7584 3.28906 21.7584 4.26563 20.733L9.09375 15.6635C8.79688 14.8473 8.70703 13.9572 8.89844 13.0918ZM2.5 19.8594C1.98438 19.8594 1.5625 19.4164 1.5625 18.875C1.5625 18.3295 1.98047 17.8906 2.5 17.8906C3.01953 17.8906 3.4375 18.3295 3.4375 18.875C3.4375 19.4164 3.01953 19.8594 2.5 19.8594Z" fill="#E66410"/>
</svg>
