<svg width="20" height="19" viewBox="0 0 20 19" fill="none" xmlns="http://www.w3.org/2000/svg">
<path fill-rule="evenodd" clip-rule="evenodd" d="M2.12836 14.2565L0.833252 18.9639L5.67225 17.7007C7.00557 18.4245 8.50662 18.806 10.0342 18.8066H10.0382C15.0691 18.8066 19.1643 14.7308 19.1666 9.72206C19.1674 7.2946 18.2191 5.01213 16.4955 3.29497C14.7719 1.57781 12.48 0.63185 10.0383 0.630615C5.00665 0.630615 0.912033 4.7057 0.909924 9.71478C0.907991 11.309 1.32826 12.8755 2.12836 14.2565ZM7.24362 5.5247C7.40602 5.53124 7.58591 5.5389 7.75687 5.91697C7.87331 6.17492 8.06909 6.65524 8.22545 7.03888C8.34131 7.32314 8.43553 7.55432 8.45982 7.60263C8.51689 7.71614 8.55473 7.84903 8.4788 8.00033C8.46713 8.02359 8.45637 8.04551 8.44609 8.06643C8.38951 8.18165 8.34772 8.26673 8.25102 8.37889C8.21239 8.4237 8.17245 8.47204 8.13255 8.52033C8.05444 8.61487 7.97647 8.70923 7.90873 8.77659C7.79434 8.88973 7.67524 9.01274 7.80848 9.23988C7.94173 9.46701 8.3994 10.2103 9.07741 10.8122C9.80717 11.46 10.4409 11.7335 10.7617 11.8719C10.824 11.8988 10.8745 11.9206 10.9116 11.9391C11.1399 12.0526 11.2727 12.0336 11.4058 11.882C11.539 11.7305 11.9755 11.2193 12.1278 10.992C12.28 10.7647 12.432 10.8024 12.641 10.8782C12.8501 10.9541 13.9712 11.5033 14.1995 11.617C14.2444 11.6393 14.2864 11.6594 14.3252 11.6781C14.484 11.7543 14.5911 11.8057 14.6368 11.882C14.6938 11.977 14.6937 12.4313 14.5037 12.9615C14.3138 13.4917 13.3827 14.0032 12.9643 14.041C12.9241 14.0446 12.884 14.0493 12.8429 14.0541C12.4563 14.0993 11.9685 14.1564 10.2274 13.4728C8.08281 12.6309 6.66936 10.5436 6.37931 10.1153C6.3558 10.0806 6.33967 10.0568 6.33113 10.0454L6.32842 10.0418C6.20492 9.8774 5.3999 8.80581 5.3999 7.69712C5.3999 6.65196 5.91581 6.10387 6.15338 5.85147C6.16975 5.83409 6.18479 5.81811 6.19825 5.80346C6.40718 5.5762 6.65431 5.51939 6.80642 5.51939L7.24362 5.5247Z" fill="#D0D0D1"/>
</svg>
