<svg width="20" height="19" viewBox="0 0 20 19" fill="none" xmlns="http://www.w3.org/2000/svg">
<path fill-rule="evenodd" clip-rule="evenodd" d="M2.12811 14.0272L0.833008 18.7347L5.67201 17.4714C7.00532 18.1952 8.50637 18.5767 10.034 18.5773H10.0379C15.0689 18.5773 19.1641 14.5015 19.1663 9.49282C19.1672 7.06535 18.2189 4.78288 16.4952 3.06572C14.7716 1.34857 12.4798 0.402602 10.0381 0.401367C5.0064 0.401367 0.911789 4.47646 0.909679 9.48553C0.907747 11.0797 1.32801 12.6463 2.12811 14.0272ZM7.24338 5.29545C7.40578 5.302 7.58567 5.30965 7.75663 5.68772C7.87307 5.94567 8.06884 6.42599 8.2252 6.80963C8.34106 7.09389 8.43529 7.32507 8.45958 7.37338C8.51665 7.48689 8.55449 7.61978 8.47856 7.77108C8.46689 7.79434 8.45612 7.81626 8.44585 7.83718C8.38926 7.9524 8.34748 8.03749 8.25077 8.14964C8.21214 8.19445 8.1722 8.24279 8.1323 8.29108C8.05419 8.38562 7.97623 8.47998 7.90848 8.54734C7.7941 8.66048 7.67499 8.7835 7.80824 9.01063C7.94148 9.23777 8.39916 9.98105 9.07717 10.5829C9.80693 11.2307 10.4406 11.5042 10.7615 11.6427C10.8237 11.6696 10.8742 11.6914 10.9113 11.7098C11.1396 11.8233 11.2725 11.8043 11.4056 11.6528C11.5387 11.5012 11.9753 10.99 12.1275 10.7627C12.2798 10.5355 12.4317 10.5732 12.6408 10.649C12.8498 10.7248 13.971 11.2741 14.1993 11.3877C14.2442 11.4101 14.2861 11.4302 14.325 11.4488C14.4837 11.525 14.5909 11.5765 14.6366 11.6528C14.6936 11.7477 14.6934 12.202 14.5035 12.7322C14.3135 13.2625 13.3824 13.7739 12.9641 13.8117C12.9238 13.8153 12.8838 13.82 12.8426 13.8248C12.456 13.8701 11.9682 13.9271 10.2271 13.2436C8.08256 12.4017 6.66911 10.3144 6.37906 9.88607C6.35555 9.85135 6.33942 9.82754 6.33088 9.81616L6.32818 9.81256C6.20467 9.64816 5.39966 8.57656 5.39966 7.46787C5.39966 6.42271 5.91557 5.87462 6.15314 5.62222C6.1695 5.60484 6.18455 5.58886 6.19801 5.57421C6.40693 5.34695 6.65407 5.29014 6.80617 5.29014L7.24338 5.29545Z" fill="#454446"/>
</svg>
